<?xml version="1.0" encoding="utf-8"?>
<!-- Generator: Adobe Illustrator 24.1.0, SVG Export Plug-In . SVG Version: 6.00 Build 0)  -->
<svg version="1.1" id="Layer_1" xmlns="http://www.w3.org/2000/svg" xmlns:xlink="http://www.w3.org/1999/xlink" x="0px" y="0px"
	 viewBox="0 0 278.1 219.2" style="enable-background:new 0 0 278.1 219.2;" xml:space="preserve">
<style type="text/css">
	.st0{fill:#CD7FAE;}
	.st1{fill:#EABBD4;}
</style>
<g>
	<g>
		<path class="st0" d="M139.1,112.1L89.1,62.2l25.7-25.7l24.2,24.2l24.2-24.2L189,62.2L139.1,112.1z M91.3,62.2l47.8,47.8l47.8-47.8
			l-23.5-23.5l-24.2,24.2l-24.2-24.2L91.3,62.2z"/>
	</g>
	<g>
		
			<rect x="126.6" y="35.6" transform="matrix(0.9497 -0.313 0.313 0.9497 -16.8759 43.472)" class="st0" width="0.8" height="77.4"/>
	</g>
	<g>
		<polygon class="st0" points="139.4,111.2 138.7,110.9 162.9,37.4 163.7,37.7 		"/>
	</g>
	<g>
		<path class="st1" d="M70.1,212.3C70.1,212.3,70.1,212.3,70.1,212.3L70.1,212.3c-0.3,0.4-0.6,0.7-1,1c-0.3,0.3-0.7,0.5-1.1,0.8
			c-0.7,0.5-1.5,0.9-2.2,1.2c-0.8,0.4-1.5,0.7-2.3,1c-0.8,0.3-1.6,0.6-2.4,0.8c-1.6,0.5-3.2,0.9-4.9,1.2c-0.8,0.2-1.7,0.3-2.5,0.4
			c-0.8,0.1-1.7,0.2-2.5,0.2c-0.8,0-1.7,0-2.6,0c-0.9-0.1-1.7-0.2-2.6-0.4c-0.4-0.1-0.9-0.3-1.3-0.5c-0.4-0.2-0.9-0.4-1.3-0.8
			c-0.4-0.3-0.8-0.7-1.1-1.2c-0.3-0.5-0.5-1-0.6-1.5c-0.1-0.5-0.1-1-0.1-1.6c0-0.5,0.2-1,0.4-1.5c0.1-0.2,0.2-0.5,0.3-0.7
			c0.1-0.2,0.3-0.4,0.4-0.6c0.3-0.4,0.6-0.8,1-1.1c0.4-0.3,0.8-0.6,1.2-0.8c0.4-0.2,0.9-0.4,1.5-0.5c0.3,0,0.6,0,1,0.1
			c0.2,0.1,0.4,0.2,0.5,0.3c0.2,0.1,0.3,0.3,0.4,0.5c0.2,0.4,0.2,0.7,0.2,1c0,0.3-0.1,0.6-0.2,0.8c-0.2,0.3-0.5,0.5-0.9,0.3
			c-0.3-0.1-0.4-0.4-0.4-0.7l0-0.1c0-0.1,0-0.3,0-0.4c0-0.1-0.1-0.2-0.1-0.2c0,0,0,0,0,0c0,0-0.1,0-0.2,0.1c-0.1,0-0.2,0.1-0.4,0.2
			c-0.1,0.1-0.3,0.2-0.4,0.3c-0.3,0.2-0.5,0.4-0.7,0.7c-0.2,0.3-0.4,0.5-0.6,0.8c-0.2,0.3-0.3,0.6-0.4,0.9c-0.1,0.3-0.2,0.6-0.2,0.9
			c0,0.1,0,0.1,0,0.2c0,0,0,0.1,0,0.1l0,0.1c0,0.2,0,0.3,0,0.4c0.1,0.6,0.4,1.1,0.8,1.5c0.4,0.4,1.1,0.8,1.8,1.1
			c0.7,0.3,1.5,0.5,2.2,0.6c0.8,0.1,1.6,0.2,2.4,0.2c0.8,0,1.6,0,2.4-0.1c0.8-0.1,1.6-0.2,2.4-0.3c0.8-0.1,1.6-0.3,2.4-0.5
			c0.8-0.2,1.6-0.4,2.4-0.6c0.8-0.2,1.6-0.5,2.3-0.8c0.8-0.3,1.5-0.6,2.2-0.9c0.7-0.3,1.4-0.7,2.1-1.2c0.3-0.2,0.6-0.5,0.9-0.7
			c0.3-0.3,0.5-0.5,0.7-0.8c0.2-0.3,0.6-0.4,0.9-0.2C70.2,211.6,70.3,212,70.1,212.3z"/>
		<path class="st1" d="M98.7,212.4C98.7,212.4,98.7,212.4,98.7,212.4c-0.9,0.7-1.8,1.3-2.8,1.8c-0.5,0.3-1,0.5-1.5,0.8
			c-0.5,0.2-1,0.5-1.5,0.7c-0.5,0.2-1,0.4-1.5,0.6c-0.5,0.2-1,0.3-1.6,0.5c-0.5,0.1-1.1,0.3-1.6,0.4c-0.5,0.1-1.1,0.2-1.6,0.3
			c-0.5,0.1-1.1,0.1-1.7,0.1c-0.6,0-1.1,0-1.7,0c-0.6,0-1.1-0.1-1.7-0.2c-0.6-0.1-1.1-0.2-1.7-0.4c-0.6-0.2-1.1-0.4-1.6-0.7
			c-0.5-0.3-1-0.6-1.5-1.1c-0.2-0.2-0.4-0.5-0.6-0.7c-0.2-0.2-0.3-0.4-0.4-0.7c-0.8,0.8-1.6,1.5-2.4,2.3c-0.1,0.1-0.2,0.2-0.3,0.2
			c-0.1,0.1-0.2,0.2-0.3,0.2c-0.2,0.1-0.4,0.3-0.6,0.4c-0.2,0.1-0.5,0.3-0.8,0.4c-0.3,0.1-0.7,0.2-1.1,0.1c-0.2,0-0.4-0.1-0.6-0.2
			c-0.2-0.1-0.4-0.2-0.5-0.4c-0.3-0.3-0.5-0.6-0.7-1c0-0.1-0.1-0.2-0.1-0.3c0,0,0-0.1,0-0.1l0-0.1l0-0.1c0-0.2,0-0.3,0-0.5
			c0-0.3,0-0.6,0.1-0.9c0-0.3,0.1-0.6,0.2-0.8c0.1-0.3,0.2-0.5,0.3-0.8c0.2-0.5,0.5-0.9,0.8-1.3c0.6-0.8,1.3-1.5,2.1-2.1
			c0.2-0.2,0.4-0.3,0.6-0.4c0.2-0.1,0.4-0.3,0.6-0.4c0.4-0.2,0.9-0.4,1.4-0.6c0.3-0.1,0.5-0.1,0.8-0.2c0.1,0,0.3,0,0.5,0
			c0.2,0,0.3,0,0.5,0.1c0.2,0,0.4,0.1,0.6,0.3c0.2,0.1,0.4,0.3,0.5,0.5c0.1,0.2,0.2,0.4,0.2,0.6c0,0.2,0,0.3,0,0.5
			c-0.1,0.4-0.4,0.6-0.7,0.5c-0.2,0-0.4-0.2-0.5-0.4l0-0.1c-0.1-0.1-0.2-0.2-0.2-0.2c0,0,0,0,0,0.1c0,0,0,0,0,0.1l-0.3,0.1
			c-0.1,0.1-0.3,0.1-0.4,0.2c-0.3,0.2-0.6,0.4-0.9,0.6c-0.2,0.1-0.3,0.2-0.5,0.4c-0.2,0.1-0.3,0.3-0.4,0.4c-0.6,0.5-1.1,1.1-1.6,1.7
			c-0.2,0.3-0.4,0.6-0.6,0.9c-0.2,0.3-0.3,0.6-0.4,0.9c0,0.1-0.1,0.3-0.1,0.4c0,0.1,0,0.1,0,0.2c0,0,0,0,0,0c0,0,0,0,0,0
			c0,0,0,0,0,0c0,0,0,0,0,0l0,0.2c0,0,0,0.1,0,0.1c0,0,0.1,0.1,0.3,0.1c0.1,0,0.3,0,0.5-0.1c0.2,0,0.3-0.1,0.5-0.2
			c0.1,0,0.2-0.1,0.3-0.1c0.1-0.1,0.2-0.1,0.3-0.2c0.3-0.2,0.6-0.5,0.9-0.8c0.1-0.1,0.1-0.2,0.2-0.2l0.2-0.2
			c0.1-0.2,0.3-0.3,0.4-0.5c0.1-0.2,0.2-0.4,0.4-0.5c0.1-0.2,0.2-0.4,0.3-0.6c0.1-0.2,0.2-0.4,0.3-0.7c0,0,0-0.1,0-0.1l0,0
			c0.1-0.1,0.1-0.3,0.2-0.4l0,0l0.2-0.3c0.4-0.5,1.1-0.5,1.6-0.1c0.4,0.3,0.5,0.9,0.3,1.3c0,0.1-0.1,0.2-0.1,0.4
			c0,0.2,0,0.3,0.1,0.5c0.1,0.4,0.3,0.7,0.6,1.1c0.3,0.3,0.6,0.6,1,0.9c0.4,0.3,0.8,0.5,1.3,0.7c0.5,0.2,0.9,0.3,1.4,0.5
			c0.5,0.1,1,0.2,1.5,0.3c1,0.1,2,0.1,3.1,0c2.1-0.2,4.1-0.7,6-1.5c1-0.4,1.9-0.9,2.8-1.4c0.5-0.3,0.9-0.5,1.3-0.8
			c0.2-0.1,0.4-0.3,0.6-0.4c0.2-0.2,0.4-0.3,0.6-0.5l0,0c0.3-0.2,0.7-0.2,0.9,0.1C99,211.8,99,212.2,98.7,212.4z"/>
		<path class="st1" d="M127.8,212.5C127.8,212.5,127.8,212.5,127.8,212.5c-1.5,0.8-3,1.5-4.6,2.2c-0.8,0.3-1.6,0.6-2.4,0.9
			c-0.8,0.3-1.6,0.5-2.4,0.7c-1.7,0.4-3.4,0.6-5.1,0.4c-0.4,0-0.9-0.1-1.3-0.2c-0.4-0.1-0.9-0.2-1.3-0.3c-0.9-0.2-1.7-0.6-2.5-1
			c-0.4-0.2-0.8-0.5-1.1-0.7c-0.4-0.3-0.7-0.6-1-0.9c-0.3-0.3-0.6-0.6-0.9-0.9c-0.3-0.3-0.6-0.6-0.8-0.9c-0.1-0.1-0.2-0.2-0.3-0.3
			c0,0,0,0,0,0c0,0,0,0,0,0c-0.1,0-0.1,0.1-0.2,0.1c-0.1,0.1-0.3,0.2-0.4,0.3c-0.6,0.5-1.2,1-1.7,1.6c-0.3,0.3-0.5,0.6-0.8,0.9
			l-0.8,1c-0.1,0.1-0.1,0.2-0.2,0.3c0,0-0.1,0.1-0.1,0.1c0,0.1-0.1,0.1-0.2,0.2c0,0-0.1,0.1-0.2,0.1c0,0,0,0-0.1,0c0,0-0.1,0-0.1,0
			c0,0-0.1,0-0.1,0c0,0-0.1,0-0.1,0c-0.1,0-0.2,0-0.4,0c-0.1,0-0.2,0-0.4-0.1c-0.1-0.1-0.3-0.2-0.3-0.3c-0.1-0.1-0.1-0.2-0.2-0.3
			c0-0.1-0.1-0.2-0.1-0.2c0-0.1,0-0.1,0-0.2c0,0,0-0.1,0-0.1c0,0,0-0.1,0-0.1c0-0.1,0-0.1,0-0.2l0-0.1l0,0l0-0.1l0,0l0-0.1l0-0.1
			c0.1-0.4,0.2-0.8,0.3-1.2c0.1-0.4,0.2-0.7,0.3-1.1c-0.3-0.4-0.3-1,0-1.5l0,0l0,0c0.1-0.2,0.3-0.4,0.4-0.6c0.1-0.1,0.1-0.1,0.1-0.2
			c0-0.1,0.1-0.2,0.1-0.3c0.1-0.2,0.2-0.4,0.3-0.6l0.3-0.6c0.3-0.7,1.1-1,1.7-0.7c0.6,0.3,0.9,0.9,0.7,1.5l0,0.1
			c-0.2,0.8-0.4,1.5-0.6,2.3l0,0c0.3-0.3,0.6-0.6,1-0.9c0.2-0.1,0.4-0.3,0.6-0.4c0.1-0.1,0.2-0.1,0.3-0.2c0.1-0.1,0.3-0.1,0.5-0.2
			c0.1,0,0.2,0,0.4,0c0.1,0,0.1,0,0.2,0c0.1,0,0.1,0,0.2,0c0.2,0.1,0.4,0.1,0.5,0.2c0.3,0.2,0.5,0.3,0.6,0.5
			c0.3,0.3,0.6,0.6,0.9,0.9c0.3,0.3,0.6,0.6,0.9,0.8c0.3,0.3,0.6,0.5,0.9,0.7c0.3,0.2,0.6,0.4,0.9,0.6c0.6,0.4,1.3,0.8,2,1
			c0.4,0.1,0.7,0.3,1.1,0.4c0.4,0.1,0.8,0.2,1.1,0.2c0.4,0.1,0.8,0.1,1.2,0.1c0.4,0,0.8,0,1.2,0c0.8-0.1,1.6-0.2,2.4-0.3
			c1.6-0.3,3.1-0.9,4.6-1.5c1.5-0.6,3-1.4,4.4-2.2c0.3-0.2,0.7-0.1,0.9,0.2C128.2,211.9,128.1,212.3,127.8,212.5z M98.3,214.3
			c0,0,0.1,0,0.1-0.1C98.4,214.2,98.3,214.2,98.3,214.3C98.3,214.3,98.3,214.3,98.3,214.3C98.3,214.3,98.2,214.3,98.3,214.3
			C98.2,214.3,98.2,214.3,98.3,214.3C98.2,214.3,98.2,214.3,98.3,214.3z M104.1,211.4C104,211.4,104,211.4,104.1,211.4
			C104,211.4,104,211.4,104.1,211.4C104,211.4,104.1,211.4,104.1,211.4z"/>
		<path class="st1" d="M159.6,212.3C159.6,212.3,159.6,212.4,159.6,212.3L159.6,212.3c-0.9,0.8-1.8,1.4-2.7,2
			c-0.5,0.3-1,0.6-1.5,0.8c-0.5,0.2-1,0.5-1.5,0.7c-2,0.8-4.1,1.5-6.3,1.8c-1.1,0.2-2.2,0.3-3.3,0.4c-1.1,0.1-2.2,0.1-3.4-0.1
			c-0.6-0.1-1.2-0.2-1.7-0.4c-0.6-0.2-1.2-0.4-1.7-0.7c-0.3-0.2-0.5-0.4-0.8-0.6c-0.3-0.2-0.5-0.5-0.7-0.7c-0.4-0.5-0.8-1.2-1-1.8
			c0-0.1-0.1-0.2-0.1-0.3c-0.3,0.3-0.6,0.6-0.9,0.8c-0.4,0.4-0.8,0.7-1.2,1.1c-0.4,0.4-0.8,0.7-1.3,1.1c-0.2,0.2-0.4,0.4-0.7,0.5
			c-0.1,0.1-0.2,0.2-0.3,0.3l-0.2,0.1c0,0,0,0-0.1,0.1c-0.1,0-0.1,0.1-0.2,0.1c-0.3,0.1-0.5,0.1-0.8,0.1c-0.2,0-0.5,0-0.7-0.1
			c-0.4-0.1-0.9-0.4-1.2-0.8c-0.2-0.2-0.3-0.5-0.4-0.7c0-0.1,0-0.1-0.1-0.2l0-0.2c0-0.1,0-0.2,0-0.2c0-0.3-0.1-0.6-0.1-0.9
			c0-0.6,0-1.2,0.1-1.8c0-0.3,0.1-0.6,0.2-0.9c0.1-0.3,0.1-0.6,0.2-0.9c0.3-1.1,0.8-2.2,1.5-3.2c0.3-0.5,0.7-1,1.2-1.4
			c0.2-0.2,0.5-0.4,0.8-0.6c0.3-0.2,0.6-0.4,0.9-0.5c0.3-0.1,0.7-0.3,1.1-0.3l0.1,0l0.1,0c0.1,0,0.1,0,0.2,0c0.1,0,0.3,0,0.4,0
			c0.3,0.1,0.5,0.2,0.7,0.3c0.4,0.3,0.7,0.6,0.9,0.9c0,0,0,0.1,0.1,0.1c0.4-2,0.9-3.9,1.7-5.7c0.4-1,0.9-2.1,1.4-3
			c0.5-1,1.1-2,1.7-2.9c0.6-0.9,1.3-1.9,2.1-2.7c0.2-0.2,0.4-0.4,0.7-0.6c0.2-0.2,0.5-0.4,0.8-0.6c0.3-0.2,0.6-0.3,1-0.4
			c0.4-0.1,0.9-0.2,1.4,0c0.3,0.1,0.5,0.2,0.7,0.4c0.2,0.2,0.3,0.4,0.4,0.6c0.2,0.4,0.3,0.7,0.3,1.1c0,0.3,0.1,0.6,0,1
			c0,0.3,0,0.6-0.1,0.9c0,0.2-0.1,0.3-0.1,0.4l-0.1,0.4l-0.1,0.4l-0.1,0.4c-0.2,0.5-0.3,1.1-0.5,1.6c-0.8,2.1-1.8,4-3,5.8
			c-1.2,1.8-2.4,3.6-3.8,5.3c-0.7,0.8-1.4,1.7-2.1,2.5c0,0-0.1,0.1-0.1,0.1c0,0.3,0,0.6,0,0.8c0,0.1,0,0.2,0,0.4l0,0.2l0,0.1l0,0
			c0,0.2,0.1,0.4,0.1,0.6c0.1,0.4,0.3,0.7,0.5,1c0.2,0.3,0.5,0.6,0.8,0.9c0.7,0.5,1.5,0.9,2.5,1.2c0.9,0.3,2,0.5,3,0.5
			c1,0.1,2.1,0,3.1-0.2c2.1-0.3,4.1-0.8,6.1-1.6c0.5-0.2,1-0.4,1.4-0.7c0.5-0.2,0.9-0.5,1.4-0.8c0.9-0.6,1.7-1.2,2.4-1.9
			c0.2-0.3,0.7-0.3,0.9,0C159.8,211.7,159.9,212.1,159.6,212.3z M134.4,212.2c0.1-0.1,0.2-0.2,0.3-0.3c0,0,0-0.1,0-0.1
			c0-0.5-0.1-1.1,0-1.6c0,0,0,0,0,0c0,0,0-0.1,0-0.2c0-0.1,0-0.2-0.1-0.3c-0.1-0.2-0.1-0.5-0.2-0.7c-0.2-0.5-0.4-0.9-0.6-1.3
			c-0.1-0.2-0.2-0.4-0.4-0.5c-0.1-0.1-0.2-0.2-0.3-0.2c0,0,0,0,0,0c0,0,0,0,0,0c0,0,0,0,0,0c0,0,0,0,0,0l0,0c-0.1,0-0.3,0.1-0.4,0.2
			c-0.3,0.2-0.6,0.5-0.9,0.8c-0.3,0.3-0.5,0.7-0.8,1.1c-0.5,0.8-0.8,1.7-1.1,2.6c-0.3,0.9-0.5,1.9-0.6,2.8c0,0.2,0,0.5,0,0.7
			c0,0.1,0,0.1,0,0.2l0,0c0,0,0,0,0,0c0,0,0,0,0,0c0,0,0,0,0,0c0,0,0,0.1,0.1,0.1c0,0,0.1,0,0.1,0.1c0,0,0,0,0,0c0,0-0.1,0,0,0
			l0.2-0.1c0.1,0,0.2-0.1,0.4-0.1c0.2-0.1,0.5-0.2,0.7-0.3c0.5-0.2,0.9-0.5,1.3-0.8c0.4-0.3,0.8-0.6,1.2-1
			C133.6,212.9,134,212.6,134.4,212.2z M137.8,207.2c-0.1,0.6-0.2,1.3-0.3,1.9c0.4-0.5,0.9-1,1.3-1.5c1.3-1.6,2.6-3.4,3.6-5.2
			c0.5-0.9,1-1.8,1.5-2.8c0.4-1,0.9-1.9,1.2-2.9c0.2-0.5,0.3-1,0.4-1.5c0-0.1,0.1-0.3,0.1-0.4l0.1-0.4l0-0.4c0-0.1,0-0.2,0-0.3
			c0-0.5,0-0.9-0.1-1.3c-0.1-0.2-0.1-0.3-0.2-0.4c0,0-0.1-0.1-0.1,0c0,0,0,0,0,0c0,0,0,0,0,0c0,0-0.1,0-0.1,0.1
			c-0.1,0.1-0.3,0.1-0.4,0.3c-0.2,0.1-0.3,0.3-0.5,0.4c-0.2,0.2-0.3,0.3-0.5,0.5c-0.6,0.7-1.2,1.6-1.7,2.4c-1,1.7-1.9,3.6-2.6,5.6
			C138.7,203.2,138.2,205.2,137.8,207.2z"/>
		<path class="st1" d="M183.6,212.4C183.6,212.4,183.6,212.4,183.6,212.4c-2.5,1.9-5.3,3.5-8.3,4.5c-1.5,0.5-3,0.9-4.6,1.2
			c-1.6,0.2-3.2,0.3-4.8,0.2c-0.4,0-0.8-0.1-1.2-0.2c-0.4-0.1-0.8-0.2-1.2-0.3c-0.8-0.2-1.6-0.5-2.3-1c-0.7-0.5-1.4-1.1-1.9-1.9
			c-0.2-0.4-0.4-0.8-0.6-1.3c-0.1-0.2-0.1-0.5-0.1-0.7c0-0.2,0-0.5-0.1-0.7c-0.1-0.8-0.1-1.6-0.1-2.4c0-0.8,0.1-1.6,0.2-2.4
			c0.2-1.6,0.5-3.2,1-4.7c0.4-1.5,1-3,1.7-4.5c0.3-0.7,0.7-1.4,1.1-2.1c0.4-0.7,0.8-1.4,1.2-2.1c0.4-0.7,0.9-1.4,1.5-2
			c0.3-0.3,0.6-0.6,1.1-0.9c0.2-0.1,0.5-0.3,0.8-0.4c0.2-0.1,0.4-0.1,0.6-0.1c0.2,0,0.5,0,0.7,0.1c0.2,0.1,0.5,0.3,0.6,0.4
			c0.2,0.2,0.3,0.3,0.4,0.5c0.2,0.3,0.2,0.6,0.3,0.9c0.1,0.5,0.1,1,0.1,1.4c-0.1,0.9-0.2,1.7-0.5,2.5c-0.1,0.4-0.2,0.8-0.4,1.2
			c-0.1,0.4-0.3,0.8-0.4,1.1c-0.3,0.7-0.6,1.5-0.9,2.2c-0.3,0.7-0.7,1.4-1.1,2.1c-0.2,0.3-0.4,0.7-0.6,1l-0.6,1
			c-0.8,1.3-1.7,2.6-2.6,3.8c-0.6,0.8-1.3,1.6-1.9,2.4c0,0.4-0.1,0.7-0.1,1.1c0,0.1,0,0.2,0,0.3c0,0.1,0,0.2,0,0.2
			c0,0.1,0,0.3,0.1,0.4c0.1,0.3,0.2,0.6,0.3,0.8c0.3,0.5,0.7,1,1.3,1.4c0.5,0.4,1.2,0.7,1.9,0.9c0.3,0.1,0.7,0.2,1,0.3
			c0.4,0.1,0.7,0.1,1.1,0.2c0.7,0.1,1.5,0.1,2.2,0.1c0.7,0,1.5-0.1,2.2-0.2c1.5-0.2,2.9-0.6,4.4-1c2.8-1,5.5-2.5,7.8-4.4
			c0.3-0.2,0.7-0.2,0.9,0.1C183.9,211.7,183.9,212.2,183.6,212.4z M161.2,207.9c-0.1,0.4-0.1,0.7-0.2,1.1c0.2-0.3,0.5-0.6,0.7-0.9
			c0.5-0.6,0.9-1.2,1.3-1.8c0.4-0.6,0.8-1.3,1.2-1.9c0.4-0.7,0.8-1.3,1.1-2c0.4-0.7,0.7-1.3,1-2c0.3-0.7,0.5-1.4,0.8-2.1
			c0.1-0.4,0.2-0.7,0.3-1.1c0.1-0.4,0.1-0.7,0.2-1.1c0.1-0.7,0.2-1.5,0.1-2.1c0-0.3-0.1-0.5-0.1-0.7c-0.1,0.1-0.2,0.2-0.2,0.2
			c-0.1,0.1-0.2,0.2-0.3,0.4c-0.4,0.5-0.8,1.1-1.2,1.7c-0.4,0.6-0.7,1.3-1,1.9c-0.3,0.7-0.7,1.4-1,2c-0.6,1.4-1.1,2.7-1.6,4.1
			C161.8,205,161.5,206.5,161.2,207.9z M167.5,192.8C167.5,192.9,167.5,192.9,167.5,192.8C167.5,192.9,167.5,192.8,167.5,192.8
			C167.4,192.8,167.4,192.8,167.5,192.8z"/>
		<path class="st1" d="M211,212.4C211,212.4,211,212.4,211,212.4c-1.6,1.1-3.3,2.1-5,2.9c-0.9,0.4-1.8,0.8-2.7,1.1
			c-0.9,0.3-1.8,0.6-2.7,0.9c-0.9,0.3-1.9,0.5-2.8,0.7c-0.9,0.2-1.9,0.4-2.8,0.5c-1,0.1-1.9,0.2-2.9,0.2c-0.5,0-1,0-1.5,0
			c-0.5,0-1,0-1.5-0.1c-1-0.1-2-0.3-3-0.7c-0.5-0.2-1-0.5-1.5-0.8c-0.5-0.3-0.9-0.8-1.2-1.3c-0.2-0.3-0.3-0.5-0.4-0.8
			c-0.1-0.1-0.1-0.3-0.1-0.4c0-0.1,0-0.2-0.1-0.2l0-0.1l0-0.1c-0.1-0.6-0.1-1.2-0.1-1.8c0.1-0.6,0.2-1.2,0.5-1.7
			c0.1-0.3,0.3-0.5,0.4-0.8c0.1-0.2,0.3-0.5,0.5-0.7c0.4-0.4,0.8-0.8,1.2-1.2c0.2-0.2,0.5-0.3,0.7-0.5c0.3-0.1,0.5-0.3,0.9-0.3
			c0.1,0,0.2,0,0.3,0c0.1,0,0.1,0,0.2,0c0.1,0,0.1,0,0.1,0c0.2,0,0.4,0,0.6,0.1c0.4,0.1,0.8,0.3,1.1,0.7c0.3,0.3,0.5,0.7,0.6,1.1
			c0.1,0.4,0,0.8-0.1,1.2c0,0.1-0.1,0.2-0.1,0.2c0,0.1-0.1,0.1-0.1,0.2c-0.1,0.1-0.1,0.3-0.2,0.4c-0.2,0.3-0.4,0.5-0.6,0.7
			c-0.4,0.4-1,0.7-1.5,0.9c-0.6,0.2-1.1,0.2-1.7,0.2c-0.2,0-0.3,0-0.5-0.1c0,0.3,0,0.5,0.1,0.8c0.1,0.3,0.2,0.6,0.3,0.9
			c0.3,0.6,0.9,1.1,1.6,1.4c0.7,0.4,1.5,0.7,2.4,0.9c0.4,0.1,0.9,0.2,1.3,0.2c0.5,0.1,0.9,0.1,1.4,0.1c0.9,0,1.8,0,2.8-0.1
			c0.9-0.1,1.8-0.2,2.8-0.4c0.9-0.2,1.8-0.4,2.7-0.6c0.9-0.3,1.8-0.5,2.7-0.9c0.9-0.3,1.7-0.7,2.6-1.1c1.7-0.8,3.3-1.8,4.7-2.9
			c0.3-0.2,0.7-0.2,0.9,0.1C211.3,211.8,211.3,212.2,211,212.4z M185.8,210.7c-0.2,0.3-0.4,0.5-0.5,0.8c0.1,0,0.1,0,0.2,0
			c0.4,0,0.8-0.1,1.1-0.3c0.3-0.2,0.6-0.4,0.8-0.6c0.1-0.1,0.2-0.3,0.3-0.4c0-0.1,0.1-0.2,0.1-0.2c0,0,0-0.1,0-0.1c0,0,0-0.1,0-0.1
			c0-0.1,0-0.2,0-0.2c0-0.1,0-0.1-0.1-0.1c0,0-0.1,0-0.1,0c0,0-0.1,0-0.1,0c0,0,0,0,0,0c0,0,0,0,0,0c0,0,0,0,0,0c0,0,0,0,0,0
			c-0.1,0-0.2,0.1-0.4,0.2c-0.1,0.1-0.3,0.2-0.4,0.3C186.3,210.1,186,210.4,185.8,210.7z"/>
		<path class="st1" d="M236.1,212.4C236.1,212.4,236.1,212.4,236.1,212.4L236.1,212.4c-0.5,0.3-1,0.6-1.6,0.8
			c-0.5,0.2-1.1,0.4-1.6,0.6c-1.1,0.4-2.2,0.6-3.4,0.8c-1.1,0.2-2.3,0.4-3.4,0.5c-1.1,0.1-2.3,0.2-3.4,0.3c-1.1,0.1-2.3,0.1-3.4,0.2
			c-1.1,0.1-2.2,0.1-3.3,0.2c-1.1,0.1-2.2,0.2-3.3,0.4c-0.1,0-0.2,0.1-0.4,0.1c0,0.2-0.1,0.5-0.1,0.7c0,0.2-0.1,0.4-0.2,0.5
			c0,0.1-0.1,0.2-0.1,0.3c0,0.1-0.1,0.2-0.1,0.2c-0.2,0.3-0.5,0.6-0.8,0.8c-0.2,0.1-0.4,0.2-0.6,0.3c-0.2,0.1-0.5,0.1-0.7,0
			c-0.3-0.1-0.5-0.2-0.7-0.5c-0.1-0.1-0.2-0.3-0.2-0.4c0-0.1-0.1-0.3-0.1-0.4c0-0.3,0.1-0.5,0.2-0.7c0.1-0.2,0.2-0.3,0.3-0.5
			c0.1-0.1,0.2-0.3,0.4-0.4c0.1-0.1,0.3-0.2,0.4-0.3c0.3-0.2,0.5-0.3,0.8-0.4c0-0.3-0.1-0.7-0.2-1c-0.2-1.1-0.5-2.2-0.7-3.3
			c-0.1-0.6-0.2-1.2-0.2-1.8c0-0.3,0-0.6,0-1c0-0.2,0-0.3,0.1-0.5c0-0.2,0.1-0.3,0.1-0.5c0.1-0.3,0.2-0.6,0.3-0.9
			c0.1-0.3,0.2-0.6,0.4-0.9c0.3-0.6,0.7-1.2,1.3-1.6c0.3-0.2,0.6-0.4,1-0.6c0.1,0,0.2-0.1,0.3-0.1l0.1,0c0,0,0.1,0,0.1,0
			c0.1,0,0.1,0,0.2,0c0.1,0,0.1,0,0.2,0c0.1,0,0.2,0.1,0.4,0.1c0.1,0.1,0.2,0.1,0.2,0.2c0.1,0.1,0.2,0.2,0.3,0.3
			c0.1,0.2,0.2,0.4,0.2,0.6c0.1,0.2,0.1,0.3,0.1,0.5c0.1,0.3,0.1,0.7,0.1,1c0,0.6-0.1,1.3-0.2,1.9c-0.2,0.6-0.4,1.2-0.8,1.7
			c0,0.1-0.1,0.1-0.1,0.2c-0.1,0.1-0.1,0.1-0.2,0.2c-0.1,0.1-0.2,0.2-0.3,0.3c-0.2,0.2-0.4,0.4-0.6,0.6c-0.2,0.2-0.4,0.4-0.6,0.6
			c-0.1,0.1-0.1,0.1-0.2,0.2c0,0.3,0.1,0.6,0.1,0.9c0.1,0.6,0.1,1.1,0.2,1.7c0,0.3,0.1,0.5,0.1,0.8c0,0,0.1,0,0.1,0
			c1.2-0.2,2.3-0.3,3.4-0.4c2.3-0.2,4.5-0.2,6.7-0.4c2.2-0.1,4.5-0.3,6.6-0.8c1.1-0.2,2.2-0.5,3.2-0.8c0.5-0.2,1-0.4,1.5-0.6
			c0.5-0.2,1-0.5,1.4-0.8c0.3-0.2,0.7-0.1,0.9,0.2C236.5,211.8,236.5,212.2,236.1,212.4z M210.1,217.9
			C210.1,217.9,210.1,217.9,210.1,217.9C210.1,217.9,210.1,217.9,210.1,217.9z M210.7,217.2c0,0,0-0.1,0.1-0.1
			C210.7,217.1,210.7,217.1,210.7,217.2c-0.1,0-0.2,0-0.3,0.1c-0.1,0.1-0.1,0.1-0.2,0.2c-0.1,0.1-0.1,0.2-0.1,0.2c0,0,0,0,0,0.1
			c0,0,0,0,0,0c0,0,0.1,0,0.2-0.1c0.1-0.1,0.2-0.2,0.3-0.4C210.6,217.3,210.7,217.2,210.7,217.2z M212,210.2c0.1,0,0.1-0.1,0.2-0.1
			c0.2-0.2,0.4-0.4,0.6-0.6c0.1-0.1,0.2-0.2,0.3-0.3c0-0.1,0.1-0.1,0.1-0.1c0,0,0.1-0.1,0.1-0.1c0.3-0.4,0.5-0.9,0.6-1.4
			c0.1-0.5,0.1-1,0.1-1.5c0-0.2-0.1-0.5-0.2-0.7c0,0,0-0.1,0-0.1c-0.1,0.1-0.2,0.2-0.3,0.3c-0.1,0.2-0.3,0.3-0.4,0.5
			c-0.1,0.2-0.2,0.4-0.3,0.6c-0.2,0.4-0.4,0.8-0.5,1.3c0,0.1-0.1,0.2-0.1,0.3c0,0.1,0,0.2-0.1,0.3c0,0.2-0.1,0.5-0.1,0.7
			C212,209.7,212,210,212,210.2z M213.4,205C213.4,205,213.4,205,213.4,205c0.1,0.1,0.1,0.1,0.1,0.1C213.5,205,213.4,205,213.4,205
			C213.4,205,213.4,205,213.4,205z"/>
	</g>
	<g>
		<path class="st0" d="M22.7,135.2h1.1c3.6,0,5.8,2.3,6.4,6.8v1.4c0,4-1,8.3-2.9,12.9c-0.5,0.3-0.9,0.5-1.2,0.5
			c-0.8,0-1.2-0.2-1.2-0.8c1.8-5.1,2.6-9.1,2.6-12.1c0-3.7-1.2-5.9-3.5-6.8h-1.8c-4.2,0-8.9,3.4-14.1,10.1
			c-2.9,4.1-4.3,7.7-4.3,10.6c0,4.6,4.4,8.7,13.1,12.3c2.8,1.4,5,2.8,6.4,4.1h0.2c5.1-5.2,8.1-7.8,8.9-7.8h0.9
			c0.2,0,0.3,0.2,0.5,0.5v0.4c-2.1,1.8-5.1,4.7-8.9,8.6c0.9,1.4,1.4,2.9,1.4,4.5v0.3c0,4-2.4,8.3-7.2,12.9c-2.3,1.8-4.2,2.7-5.9,2.7
			h-0.4c-2-0.1-3.1-0.9-3.1-2.3v-0.3c0-3.1,3.9-8.8,11.7-17.3c-2-1.7-6.5-4.2-13.5-7.5C2.6,166,0,162.4,0,158.1
			c0-5.4,3.6-11.4,10.9-18C15.4,136.9,19.4,135.2,22.7,135.2z M12.3,193.1v0.3c0,0.6,0.2,0.9,0.6,1.1h0.6c3.1-0.9,6-3.8,8.6-8.8
			c0.7-1.6,1.1-3,1.1-4.3V181c0-0.6-0.2-1.5-0.6-2.7C15.9,185.6,12.5,190.5,12.3,193.1z"/>
		<path class="st0" d="M37.7,160.2c1.4,0,2.4,0.7,2.9,2c0.2,0.5,0.2,1,0.2,1.5v0.4c0,2.4-1.5,4.1-4.5,5.1c-0.8,0.2-1.6,0.2-2.4,0.2
			h-0.3c-0.3,1.3-0.4,2.5-0.4,3.5v0.1c0,2.6,1.1,3.9,3.2,3.9c2.7,0,6.2-2.1,10.5-6.4c1.1-1.2,2-2.3,2.7-3.5c0.4-0.2,0.6-0.2,0.8-0.2
			H51c0.3,0.2,0.4,0.3,0.4,0.4v0.2c-0.1,0.6-1,1.9-2.7,3.8c-4.8,4.8-9.1,7.2-13,7.2c-2.5,0-4.3-1.3-5.3-3.9
			c-0.2-0.9-0.3-1.8-0.3-2.5c0-3.4,1.3-6.7,4-9.8C35.4,160.9,36.6,160.3,37.7,160.2z M34.1,168h0.3c1.8,0,3.1-0.6,3.8-1.8
			c0.3-0.6,0.5-1.2,0.5-1.8v-0.5c0-0.7-0.2-1.3-0.6-1.7H38C36.7,162.1,35.4,164.1,34.1,168z"/>
		<path class="st0" d="M55.9,159.6h0.3c1.8,0,2.9,1.1,3.2,3.3v0.3c-0.2,0.9-1,1.3-2.1,1.3h-0.2c-0.9,0-1.3-0.6-1.3-1.8
			c-0.2-0.4-0.4-0.6-0.4-0.6h-0.1c-1.6,1-2.9,3-3.8,6c-0.3,1.4-0.5,2.5-0.5,3.5v0.5c0,2.2,0.6,3.7,1.9,4.3c0.5,0.1,0.7,0.1,0.9,0.2
			c2,0,5.2-1.9,9.5-5.8c2.6-2.7,4-4,4.2-4l0.6-0.1c0.5,0.1,0.8,0.3,0.8,0.6c-2.9,3.2-5.4,5.5-7.5,7c-3.3,2.4-6.1,3.6-8.5,3.6h-0.2
			c-2.4,0-4-1.4-4.9-4.2l-0.2-2.2c0-4,1.6-7.5,4.8-10.5C53.7,160.1,54.9,159.6,55.9,159.6z"/>
		<path class="st0" d="M69.4,159h0.6c1.7,0.3,2.6,1.1,2.6,2.5c0,1.7-0.8,3.2-2.5,4.5c3.6,0.9,5.3,1.8,5.3,2.7c0.2,0,0.3,0.7,0.4,2
			l-1.4,8.4v1l0.1,0.3c1.4-0.1,5.4-4.3,12.1-12.7c0.7-0.9,1.3-1.3,1.9-1.3h0.3c0.2,0,0.4,0.2,0.6,0.6v0.2
			c-3.7,4.7-7.7,9.1-11.8,13.3c-1.4,1-2.7,1.5-3.8,1.5c-1.9,0-2.9-1-2.9-3l1.3-7.5v-0.6c0-1.2-0.9-1.9-2.6-2.2
			c-3.4-1.1-5.1-2.7-5.1-4.7v-0.3C64.6,160.9,66.2,159.5,69.4,159z M68.2,162.2v0.1c0,1.2,0.3,2,0.9,2.5c0.9-1.1,1.3-2.1,1.3-3
			c0-0.9-0.4-1.3-1.2-1.3C68.5,160.6,68.2,161.2,68.2,162.2z"/>
		<path class="st0" d="M93.9,160.2c1.4,0,2.4,0.7,2.9,2c0.2,0.5,0.2,1,0.2,1.5v0.4c0,2.4-1.5,4.1-4.5,5.1c-0.8,0.2-1.6,0.2-2.4,0.2
			h-0.3c-0.3,1.3-0.4,2.5-0.4,3.5v0.1c0,2.6,1.1,3.9,3.2,3.9c2.6,0,6.2-2.1,10.5-6.4c1.1-1.2,2-2.3,2.7-3.5c0.4-0.2,0.6-0.2,0.8-0.2
			h0.5c0.3,0.2,0.4,0.3,0.4,0.4v0.2c-0.1,0.6-1,1.9-2.7,3.8c-4.8,4.8-9.1,7.2-13,7.2c-2.5,0-4.3-1.3-5.3-3.9
			c-0.2-0.9-0.3-1.8-0.3-2.5c0-3.4,1.3-6.7,4-9.8C91.7,160.9,92.8,160.3,93.9,160.2z M90.3,168h0.3c1.8,0,3.1-0.6,3.8-1.8
			c0.3-0.6,0.5-1.2,0.5-1.8v-0.5c0-0.7-0.2-1.3-0.6-1.7h-0.1C93,162.1,91.7,164.1,90.3,168z"/>
		<path class="st0" d="M110.2,141.4h0.7c0.5,0,0.9,0.2,1.1,0.7c-0.5,2.6-0.7,3.9-0.7,4.2h0.2c0.1,0,0.4-0.1,1.1-0.2
			c8.2-0.2,14.9-0.3,19.9-0.3h2.8c0.1,0,0.3,0.1,0.4,0.4v0.3c0,0.3-0.5,0.5-1.5,0.7H132c-5.2,0-11.9,0.1-20.1,0.3
			c-0.6,0-1,0.4-1,1.1c-1.5,9.6-2.2,17.5-2.2,23.4c0,7.2,1.1,10.9,3.3,10.9c2.6,0,6.8-5.3,12.5-16l1-0.3c0.6,0.1,0.8,0.2,0.8,0.4
			c-2,4.9-5.1,9.8-9.4,14.6c-2.1,1.7-3.7,2.5-4.9,2.5H111c-2.8,0-4.6-2.9-5.4-8.8c-0.2-1.3-0.3-2.8-0.3-4.3V169
			c0-5.3,0.7-12.4,2.2-21.2h-0.2c-2.1,0-7.8,0.3-17,0.8l-0.3-0.4v-0.3c0-0.7,2.2-1,6.7-1c2.7-0.3,6.4-0.5,11-0.6
			c0.4-3.2,1-4.9,2-4.9C109.8,141.4,109.9,141.4,110.2,141.4z"/>
		<path class="st0" d="M149.3,137h0.4c2.6,0,4.7,0.8,6.3,2.5c1.5,1.6,2.2,3.9,2.2,6.8c-0.5,4.6-1.2,6.9-2.2,6.9h-1.1
			c-0.4-0.2-0.6-0.4-0.6-0.6c0.8-2.4,1.2-4.6,1.2-6.4c0-3.4-1.4-5.8-4.1-7c-0.7-0.2-1.4-0.4-2.1-0.4H149c-0.1,0-0.1,0-0.1-0.1
			l-0.2,0.1h-0.2c-3.1,0-6.1,1.8-8.9,5.3c-1.6,2.3-2.3,4.7-2.3,7.2c0,4.7,2.6,7.9,7.7,9.7c0.2,0.3,0.4,0.4,0.4,0.4v0.3
			c0,0.8-1.4,1.4-4.1,1.8c-3.5,1-6.3,2.9-8.5,5.7c-2.6,3.3-3.9,7-3.9,10.9v0.6c0,5.3,1.9,9.4,5.8,12.2c1.8,1.2,3.9,1.8,6.2,1.8h0.3
			c6.9,0,13.8-6.5,20.6-19.5c1.1-2.1,2.4-4.9,4.1-8.4c0.5-0.4,0.9-0.6,1.4-0.6h0.1c0.5,0,0.9,0.2,1.1,0.5v0.2
			c-8.5,19.7-17.8,29.6-28,29.6c-6.6,0-11.1-2.8-13.8-8.5c-1-2.3-1.4-4.5-1.4-6.8c0-6.6,2.8-12,8.4-16.4c1.6-1.2,3.4-2.1,5.2-2.8
			c0.5-0.1,0.8-0.2,0.8-0.4c-3.9-2.3-5.8-5.6-5.8-9.8v-0.3c0-4.8,2.3-8.8,7-12C143.6,137.9,146.4,137,149.3,137z"/>
		<path class="st0" d="M176.2,158.5h0.2c1.4,0,2.2,1.1,2.2,3.3c0,1.4-0.5,4.6-1.4,9.8c-0.3,2.2-0.4,3.7-0.4,4.7
			c0,1.9,0.4,2.9,1.1,2.9c1.7-0.1,4.9-3.5,9.7-10.2l1.2-2c0.3-0.2,0.6-0.3,1-0.3c0.6,0,0.9,0.2,0.9,0.4v0c0,0.2-0.9,1.6-2.6,4.1
			c-1.2,1.7-2.8,3.6-4.7,5.7c-2.4,2.4-4.4,3.7-5.9,3.7H177c-0.8,0-1.5-0.5-2.3-1.4c-0.6-0.9-1-2.3-1-4.2c0-2,0.5-5.6,1.4-10.7
			c0.2-1.6,0.4-2.7,0.4-3.3c-0.1-0.5-0.1-0.8-0.2-0.8h-0.1c-1.1,0-2.7,3.6-4.9,10.8c-0.5,1.7-1,3.4-1.3,5.2c-0.6,0.6-1.3,1-2.2,1
			c-0.5,0-0.8-0.2-1-0.5c-0.3-0.8-0.4-2-0.4-3.5v-1c0-1.9,0.2-4.6,0.6-8.2c0.4-0.7,1.1-1,2-1c0.8,0.1,1.2,0.4,1.2,0.8
			c-0.3,3.4-0.5,5.5-0.5,6.2v0.1h0C170.9,162.4,173.4,158.5,176.2,158.5z M205.3,177.5L205.3,177.5L205.3,177.5L205.3,177.5
			L205.3,177.5z"/>
		<path class="st0" d="M194.7,160.2c1.4,0,2.4,0.7,3,2c0.2,0.5,0.2,1,0.2,1.5v0.4c0,2.4-1.5,4.1-4.5,5.1c-0.8,0.2-1.6,0.2-2.4,0.2
			h-0.3c-0.3,1.3-0.4,2.5-0.4,3.5v0.1c0,2.6,1.1,3.9,3.2,3.9c2.7,0,6.2-2.1,10.5-6.4c1.1-1.2,2-2.3,2.7-3.5c0.4-0.2,0.6-0.2,0.8-0.2
			h0.5c0.3,0.2,0.4,0.3,0.4,0.4v0.2c-0.1,0.6-1,1.9-2.8,3.8c-4.8,4.8-9.1,7.2-13,7.2c-2.5,0-4.3-1.3-5.3-3.9
			c-0.2-0.9-0.3-1.8-0.3-2.5c0-3.4,1.3-6.7,4-9.8C192.5,160.9,193.7,160.3,194.7,160.2z M191.2,168h0.3c1.8,0,3.1-0.6,3.8-1.8
			c0.3-0.6,0.5-1.2,0.5-1.8v-0.5c0-0.7-0.2-1.3-0.6-1.7h-0.1C193.8,162.1,192.5,164.1,191.2,168z"/>
		<path class="st0" d="M208.8,159h0.6c1.7,0.3,2.6,1.1,2.6,2.5c0,1.7-0.8,3.2-2.5,4.5c3.6,0.9,5.3,1.8,5.3,2.7c0.2,0,0.3,0.7,0.4,2
			l-1.4,8.4v1l0.1,0.3c1.4-0.1,5.4-4.3,12.1-12.7c0.7-0.9,1.3-1.3,1.9-1.3h0.3c0.2,0,0.4,0.2,0.6,0.6v0.2
			c-3.7,4.7-7.7,9.1-11.8,13.3c-1.4,1-2.7,1.5-3.8,1.5c-1.9,0-2.9-1-2.9-3l1.3-7.5v-0.6c0-1.2-0.9-1.9-2.6-2.2
			c-3.4-1.1-5.1-2.7-5.1-4.7v-0.3C204,160.9,205.6,159.5,208.8,159z M207.7,162.2v0.1c0,1.2,0.3,2,0.9,2.5c0.9-1.1,1.3-2.1,1.3-3
			c0-0.9-0.4-1.3-1.2-1.3C208,160.6,207.7,161.2,207.7,162.2z"/>
		<path class="st0" d="M239.5,159.2c1,0,1.5,0.4,1.5,1.2c0.1,0.6,0.2,2.6,0.3,6c-0.1,2.8-0.2,5.3-0.3,7.6h0.1c4.9-2.3,7.9-4,9-5.3
			c0.8-1.4,1.3-2.1,1.7-2.1c0.1-0.1,0.3-0.1,0.5-0.1h0.5c0.1,0,0.2,0.1,0.4,0.4v0.1c-0.6,2-2.8,4-6.7,6c-3.7,1.7-5.6,2.7-5.6,2.9
			c0,2.1-0.7,5.7-2.1,10.8c-1.9,4.9-4.3,7.4-7.2,7.4h-0.3c-2.2,0-3.6-1.2-4.1-3.5v-1.4c0-3.6,2.8-7.6,8.6-12c1.1-0.6,1.6-1,1.7-1.2
			c0.2-3.6,0.3-6.4,0.4-8.6v-0.1h-0.1c-2.4,5.3-4.8,8-7.3,8h-0.4c-1.9,0-3.2-0.9-3.9-2.7c-0.3-0.9-0.4-1.7-0.4-2.3
			c0-3.6,1.5-6.8,4.5-9.8c1.2-0.8,2.3-1.2,3.2-1.2c1.2,0,2.7,0.8,4.3,2.3v-0.1c-0.1-0.5-0.1-0.8-0.1-1.2
			C237.9,159.6,238.6,159.2,239.5,159.2z M229.2,189v0.7c0.2,2,1.1,3.1,2.7,3.1h0.2c0.9-0.3,1.8-1.2,2.6-2.9c1.4-4.1,2.1-7.2,2.1-9
			c0.1,0,0.2-0.9,0.4-2.7C231.8,182.1,229.2,185.7,229.2,189z M229.3,170.5c0.1,2,0.5,3.1,1.1,3.4c0,0,0.2,0,0.4,0.1
			c1.4,0,3.4-3.1,5.8-9.2l0.2-0.7c-1.4-1.9-2.5-2.9-3.5-2.9c-2.2,0-3.5,3-3.9,9.1V170.5z"/>
		<path class="st0" d="M265.5,160.8c0.8,0,1.3,0.4,1.6,1.2c0.4,1.3,0.6,3,0.6,5.1v1c0,1.9-0.2,4.2-0.5,7c1.9-1,4-2.7,6.3-4.9
			c1-1.1,2-2.2,2.8-3.2c0.3-0.3,0.7-0.4,1.2-0.4c0.3,0,0.5,0.2,0.7,0.5v0c-0.3,0.9-1.9,2.7-4.9,5.5c-1.9,1.5-4.1,3-6.4,4.4
			c-0.5,3.5-1.3,6.8-2.5,10.2c-2.4,6.1-5.1,9.1-8.2,9.1h-0.6c-1.6,0-2.8-1-3.6-3.1c-0.2-0.9-0.2-1.4-0.2-1.5c0-3.6,1.8-7,5.4-10.4
			c2-1.5,3.9-2.8,5.8-3.7c0.4,0,0.6-0.5,0.6-1.4c0.5-3.3,0.8-6.6,0.8-10v-0.2h-0.1c-1.1,2.5-2.5,5-4.3,7.5c-1.1,1.3-2.1,2.1-2.8,2.5
			c-0.6,0.3-1.3,0.5-2.1,0.5h-0.6c-1.7,0-2.8-1.1-3.4-3.2c-0.1-0.6-0.1-1.1-0.1-1.4v-1c0-2.5,0.7-5.4,2.2-8.8
			c0.6-0.4,1.1-0.7,1.6-0.7h0.4c0.8,0,1.3,0.3,1.3,0.9c-0.9,2.4-1.5,5.7-1.9,9.8c0,2.1,0.5,3.2,1.4,3.2c1.9,0,4.6-4.5,8.2-13.5
			C264.2,161,264.8,160.8,265.5,160.8z M253.8,191c0,1.9,0.7,3.1,2,3.7c0.2,0.1,0.3,0.1,0.5,0.1h0.1c1.6,0,3.3-3,5-8.9
			c1-4,1.5-6.3,1.5-6.9c-4.3,2.4-7,5.1-8.3,8.3C254.1,188.7,253.8,189.9,253.8,191z"/>
	</g>
	<polygon class="st1" points="138.5,196.4 139.6,194.6 142.7,194.6 141.6,196.4 139.9,197.6 	"/>
	<path class="st0" d="M142.3,30.1c2.8-6.5-1-18.7-1-18.7s2.8,3.9,4.6,10.5c2.1,8,0.9,14.1-0.9,17.1c4.5-4.8,9.5-12.4,5.1-22.2
		C146.7,9.5,139.5,0,139.5,0s-1.3,10.3-6.9,16c-11.4,11.7-5.6,25.3,5.1,28C130.4,41.8,140.8,33.7,142.3,30.1z"/>
</g>
</svg>
